<svg width="180" height="180" viewBox="0 0 180 180" fill="none" xmlns="http://www.w3.org/2000/svg">
<rect x="11.5" y="11.5002" width="156.999" height="156.999" rx="31.5" fill="#171717" stroke="#2D2D2D"/>
<rect x="11.5" y="11.5002" width="156.999" height="156.999" rx="31.5" stroke="url(#paint0_linear_1_271)"/>
<rect x="168.5" y="168.5" width="156.999" height="156.999" rx="31.5" transform="rotate(-180 168.5 168.5)" stroke="url(#paint1_linear_1_271)"/>
<mask id="mask0_1_271" style="mask-type:alpha" maskUnits="userSpaceOnUse" x="11" y="11" width="158" height="158">
<rect x="169" y="169" width="157.999" height="157.999" rx="32" transform="rotate(-180 169 169)" fill="#0A0C1E"/>
</mask>
<g mask="url(#mask0_1_271)">
<g filter="url(#filter0_f_1_271)">
<circle cx="25.1073" cy="160.535" r="39.4998" fill="#18482A"/>
</g>
</g>
<mask id="mask1_1_271" style="mask-type:alpha" maskUnits="userSpaceOnUse" x="11" y="11" width="158" height="158">
<rect x="11" y="11.0002" width="157.999" height="157.999" rx="32" fill="#0A0C1E"/>
</mask>
<g mask="url(#mask1_1_271)">
<g filter="url(#filter1_f_1_271)">
<circle cx="154.893" cy="19.4643" r="39.4998" transform="rotate(-180 154.893 19.4643)" fill="#29C27F"/>
</g>
</g>
<path d="M102.5 45H69.36C66.9525 45 65 46.9525 65 49.36V67.5075H102.5V45Z" fill="#169154"/>
<path d="M65 112.635V130.64C65 133.048 66.9525 135 69.3575 135H102.5V112.635H65Z" fill="#18482A"/>
<path d="M65 67.5076H102.5V90.0126H65V67.5076Z" fill="#0C8045"/>
<path d="M65 90.0125H102.5V112.637H65V90.0125Z" fill="#17472A"/>
<path d="M135.64 45H102.5V67.5075H140V49.36C140 46.9525 138.047 45 135.64 45Z" fill="#29C27F"/>
<path d="M102.5 112.635V135H135.642C138.047 135 140 133.048 140 130.643V112.638L102.5 112.635Z" fill="#27663F"/>
<path d="M102.5 67.5076H140V90.0126H102.5V67.5076Z" fill="#19AC65"/>
<path d="M102.5 90.0125H140V112.637H102.5V90.0125Z" fill="#129652"/>
<path d="M85.7975 115H44.2025C41.8825 115 40 113.117 40 110.797V69.2025C40 66.8825 41.8825 65 44.2025 65H85.7975C88.1175 65 90 66.8825 90 69.2025V110.797C90 113.117 88.1175 115 85.7975 115Z" fill="#0C7238"/>
<path d="M54.5174 77.5H60.4824L65.3224 86.885L70.4374 77.5H76.0099L68.3324 90L76.1849 102.5H70.3074L65.0324 92.675L59.7799 102.5H53.8149L61.7974 89.955L54.5174 77.5Z" fill="white"/>
<defs>
<filter id="filter0_f_1_271" x="-118.393" y="17.0356" width="287" height="287" filterUnits="userSpaceOnUse" color-interpolation-filters="sRGB">
<feFlood flood-opacity="0" result="BackgroundImageFix"/>
<feBlend mode="normal" in="SourceGraphic" in2="BackgroundImageFix" result="shape"/>
<feGaussianBlur stdDeviation="52" result="effect1_foregroundBlur_1_271"/>
</filter>
<filter id="filter1_f_1_271" x="21.3929" y="-114.036" width="267" height="267" filterUnits="userSpaceOnUse" color-interpolation-filters="sRGB">
<feFlood flood-opacity="0" result="BackgroundImageFix"/>
<feBlend mode="normal" in="SourceGraphic" in2="BackgroundImageFix" result="shape"/>
<feGaussianBlur stdDeviation="47" result="effect1_foregroundBlur_1_271"/>
</filter>
<linearGradient id="paint0_linear_1_271" x1="152.071" y1="16.6431" x2="121.035" y2="67.4286" gradientUnits="userSpaceOnUse">
<stop stop-color="#29C27F"/>
<stop offset="1" stop-opacity="0"/>
</linearGradient>
<linearGradient id="paint1_linear_1_271" x1="310.071" y1="174.643" x2="279.035" y2="225.428" gradientUnits="userSpaceOnUse">
<stop stop-color="#18482A"/>
<stop offset="1" stop-opacity="0"/>
</linearGradient>
</defs>
</svg>
