<svg width="180" height="180" viewBox="0 0 180 180" fill="none" xmlns="http://www.w3.org/2000/svg">
<rect x="11.5" y="11.5002" width="156.999" height="156.999" rx="31.5" fill="#171717" stroke="#2D2D2D"/>
<rect x="11.5" y="11.5002" width="156.999" height="156.999" rx="31.5" stroke="url(#paint0_linear_2_7438)"/>
<rect x="168.5" y="168.5" width="156.999" height="156.999" rx="31.5" transform="rotate(-180 168.5 168.5)" stroke="url(#paint1_linear_2_7438)"/>
<mask id="mask0_2_7438" style="mask-type:alpha" maskUnits="userSpaceOnUse" x="11" y="11" width="158" height="158">
<rect x="169" y="169" width="157.999" height="157.999" rx="32" transform="rotate(-180 169 169)" fill="#0A0C1E"/>
</mask>
<g mask="url(#mask0_2_7438)">
<g filter="url(#filter0_f_2_7438)">
<circle cx="25.1073" cy="160.535" r="39.4998" fill="#9C0101"/>
</g>
</g>
<mask id="mask1_2_7438" style="mask-type:alpha" maskUnits="userSpaceOnUse" x="11" y="11" width="158" height="158">
<rect x="11" y="11.0002" width="157.999" height="157.999" rx="32" fill="#0A0C1E"/>
</mask>
<g mask="url(#mask1_2_7438)">
<g filter="url(#filter1_f_2_7438)">
<circle cx="154.892" cy="19.4643" r="39.4998" transform="rotate(-180 154.892 19.4643)" fill="#FF1C2E"/>
</g>
</g>
<g clip-path="url(#clip0_2_7438)">
<path d="M105.788 117.038C111.113 110.775 114.525 101.513 114.75 91.125V88.875C114.525 78.4875 111.075 69.225 105.788 62.9625C98.8875 54.0375 88.7625 50.025 77.325 50.025C70.275 50.025 63.6375 50.5125 58.0125 54.2625C66.45 46.65 77.5875 42.0375 89.8125 42H90C116.513 42 138 63.4875 138 90C138 115.725 117.75 136.762 92.2875 137.962C91.5375 138 90.75 138 90 138C77.7 138 66.4875 133.387 58.0125 125.775C63.6375 129.525 69.9 129.675 76.95 129.675C88.35 129.713 98.925 126 105.788 117.038Z" fill="url(#paint2_linear_2_7438)"/>
<path d="M105.787 62.9624C101.4 57.7499 95.7 54.6374 89.475 54.6374C75.4875 54.6374 64.1625 70.4624 64.1625 90.0374C64.1625 109.612 75.4875 125.437 89.475 125.437C95.7 125.437 101.362 122.287 105.787 117.112C98.8875 126.037 88.65 131.737 77.25 131.737C70.2375 131.737 63.6375 129.6 58.0125 125.85C48.1875 117 42 104.212 42 89.9999C42 75.7874 48.1875 62.9999 58.0125 54.2249C63.6375 50.4749 70.2 48.3374 77.25 48.3374C88.6875 48.3374 98.925 53.9999 105.787 62.9624Z" fill="url(#paint3_linear_2_7438)"/>
</g>
<defs>
<filter id="filter0_f_2_7438" x="-118.393" y="17.0356" width="287" height="287" filterUnits="userSpaceOnUse" color-interpolation-filters="sRGB">
<feFlood flood-opacity="0" result="BackgroundImageFix"/>
<feBlend mode="normal" in="SourceGraphic" in2="BackgroundImageFix" result="shape"/>
<feGaussianBlur stdDeviation="52" result="effect1_foregroundBlur_2_7438"/>
</filter>
<filter id="filter1_f_2_7438" x="21.3922" y="-114.036" width="267" height="267" filterUnits="userSpaceOnUse" color-interpolation-filters="sRGB">
<feFlood flood-opacity="0" result="BackgroundImageFix"/>
<feBlend mode="normal" in="SourceGraphic" in2="BackgroundImageFix" result="shape"/>
<feGaussianBlur stdDeviation="47" result="effect1_foregroundBlur_2_7438"/>
</filter>
<linearGradient id="paint0_linear_2_7438" x1="152.071" y1="16.6431" x2="121.035" y2="67.4286" gradientUnits="userSpaceOnUse">
<stop stop-color="#FF1C2E"/>
<stop offset="1" stop-opacity="0"/>
</linearGradient>
<linearGradient id="paint1_linear_2_7438" x1="310.071" y1="174.643" x2="279.035" y2="225.428" gradientUnits="userSpaceOnUse">
<stop stop-color="#9C0101"/>
<stop offset="1" stop-opacity="0"/>
</linearGradient>
<linearGradient id="paint2_linear_2_7438" x1="-3861.61" y1="198.48" x2="-3861.61" y2="9502.32" gradientUnits="userSpaceOnUse">
<stop offset="0.3" stop-color="#FF1B2D"/>
<stop offset="0.4381" stop-color="#FA1A2C"/>
<stop offset="0.5939" stop-color="#ED1528"/>
<stop offset="0.7581" stop-color="#D60E21"/>
<stop offset="0.9272" stop-color="#B70519"/>
<stop offset="1" stop-color="#A70014"/>
</linearGradient>
<linearGradient id="paint3_linear_2_7438" x1="-3082.95" y1="119.478" x2="-3082.95" y2="8348.22" gradientUnits="userSpaceOnUse">
<stop stop-color="#9C0000"/>
<stop offset="0.7" stop-color="#FF4B4B"/>
</linearGradient>
<clipPath id="clip0_2_7438">
<rect width="96" height="96" fill="white" transform="matrix(-1 0 0 1 138 42)"/>
</clipPath>
</defs>
</svg>
