<svg width="180" height="180" viewBox="0 0 180 180" fill="none" xmlns="http://www.w3.org/2000/svg">
<rect x="11.5" y="11.5005" width="156.999" height="156.999" rx="31.5" fill="#171717" stroke="#2D2D2D"/>
<rect x="11.5" y="11.5005" width="156.999" height="156.999" rx="31.5" stroke="url(#paint0_linear_2_6724)"/>
<rect x="168.5" y="168.5" width="156.999" height="156.999" rx="31.5" transform="rotate(-180 168.5 168.5)" stroke="url(#paint1_linear_2_6724)"/>
<mask id="mask0_2_6724" style="mask-type:alpha" maskUnits="userSpaceOnUse" x="11" y="11" width="158" height="158">
<rect x="169" y="169" width="157.999" height="157.999" rx="32" transform="rotate(-180 169 169)" fill="#0A0C1E"/>
</mask>
<g mask="url(#mask0_2_6724)">
<g filter="url(#filter0_f_2_6724)">
<circle cx="25.1073" cy="160.536" r="39.4998" fill="#EA002A"/>
</g>
</g>
<mask id="mask1_2_6724" style="mask-type:alpha" maskUnits="userSpaceOnUse" x="11" y="11" width="158" height="158">
<rect x="10.9999" y="11.0005" width="157.999" height="157.999" rx="32" fill="#0A0C1E"/>
</mask>
<g mask="url(#mask1_2_6724)">
<g filter="url(#filter1_f_2_6724)">
<circle cx="154.893" cy="19.4645" r="39.4998" transform="rotate(-180 154.893 19.4645)" fill="#EA002A"/>
</g>
</g>
<path fill-rule="evenodd" clip-rule="evenodd" d="M101.512 44L45 71.1818L53.3721 110.909H63.8372V81.6366L72.2092 110.909H82.6746V75.3637L91.0464 110.909H103.604L105.698 69.0909H107.791L111.977 110.909H128.721L135 52.3637L101.512 44ZM86.8602 117.182L126.628 119.273L124.535 136L91.0464 127.637L86.8602 117.182Z" fill="#EA002A"/>
<defs>
<filter id="filter0_f_2_6724" x="-118.393" y="17.0361" width="287" height="287" filterUnits="userSpaceOnUse" color-interpolation-filters="sRGB">
<feFlood flood-opacity="0" result="BackgroundImageFix"/>
<feBlend mode="normal" in="SourceGraphic" in2="BackgroundImageFix" result="shape"/>
<feGaussianBlur stdDeviation="52" result="effect1_foregroundBlur_2_6724"/>
</filter>
<filter id="filter1_f_2_6724" x="21.3929" y="-114.035" width="267" height="267" filterUnits="userSpaceOnUse" color-interpolation-filters="sRGB">
<feFlood flood-opacity="0" result="BackgroundImageFix"/>
<feBlend mode="normal" in="SourceGraphic" in2="BackgroundImageFix" result="shape"/>
<feGaussianBlur stdDeviation="47" result="effect1_foregroundBlur_2_6724"/>
</filter>
<linearGradient id="paint0_linear_2_6724" x1="152.071" y1="16.6433" x2="121.035" y2="67.4288" gradientUnits="userSpaceOnUse">
<stop stop-color="#EA002A"/>
<stop offset="1" stop-opacity="0"/>
</linearGradient>
<linearGradient id="paint1_linear_2_6724" x1="310.071" y1="174.643" x2="279.035" y2="225.428" gradientUnits="userSpaceOnUse">
<stop stop-color="#EA002A"/>
<stop offset="1" stop-opacity="0"/>
</linearGradient>
</defs>
</svg>
