<svg width="180" height="180" viewBox="0 0 180 180" fill="none" xmlns="http://www.w3.org/2000/svg">
<rect x="11.5" y="11.5" width="156.999" height="156.999" rx="31.5" fill="#171717" stroke="#2D2D2D"/>
<rect x="11.5" y="11.5" width="156.999" height="156.999" rx="31.5" stroke="url(#paint0_linear_1_460)"/>
<rect x="168.5" y="168.5" width="156.999" height="156.999" rx="31.5" transform="rotate(-180 168.5 168.5)" stroke="url(#paint1_linear_1_460)"/>
<mask id="mask0_1_460" style="mask-type:alpha" maskUnits="userSpaceOnUse" x="11" y="11" width="158" height="158">
<rect x="168.999" y="169" width="157.999" height="157.999" rx="32" transform="rotate(-180 168.999 169)" fill="#0A0C1E"/>
</mask>
<g mask="url(#mask0_1_460)">
<g filter="url(#filter0_f_1_460)">
<circle cx="25.1065" cy="160.535" r="39.4998" fill="#4388E9"/>
</g>
</g>
<mask id="mask1_1_460" style="mask-type:alpha" maskUnits="userSpaceOnUse" x="11" y="11" width="158" height="158">
<rect x="11.0007" y="11" width="157.999" height="157.999" rx="32" fill="#0A0C1E"/>
</mask>
<g mask="url(#mask1_1_460)">
<g filter="url(#filter1_f_1_460)">
<circle cx="154.893" cy="19.464" r="39.4998" transform="rotate(-180 154.893 19.464)" fill="#2C8AF1"/>
</g>
</g>
<path d="M89.834 139.668C117.357 139.668 139.668 117.357 139.668 89.834C139.668 62.3114 117.357 40 89.834 40C62.3114 40 40 62.3114 40 89.834C40 117.357 62.3114 139.668 89.834 139.668Z" fill="#2196F3"/>
<path d="M102.293 107.276H64.9174C60.7886 107.276 57.4423 103.93 57.4423 99.8008V72.3921H94.8177C98.9465 72.3921 102.293 75.7384 102.293 79.8672V107.276Z" fill="white"/>
<path d="M122.226 107.276L107.276 97.3091V82.3589L122.226 72.3921V107.276Z" fill="white"/>
<defs>
<filter id="filter0_f_1_460" x="-118.393" y="17.0356" width="287" height="287" filterUnits="userSpaceOnUse" color-interpolation-filters="sRGB">
<feFlood flood-opacity="0" result="BackgroundImageFix"/>
<feBlend mode="normal" in="SourceGraphic" in2="BackgroundImageFix" result="shape"/>
<feGaussianBlur stdDeviation="52" result="effect1_foregroundBlur_1_460"/>
</filter>
<filter id="filter1_f_1_460" x="21.3929" y="-114.036" width="267" height="267" filterUnits="userSpaceOnUse" color-interpolation-filters="sRGB">
<feFlood flood-opacity="0" result="BackgroundImageFix"/>
<feBlend mode="normal" in="SourceGraphic" in2="BackgroundImageFix" result="shape"/>
<feGaussianBlur stdDeviation="47" result="effect1_foregroundBlur_1_460"/>
</filter>
<linearGradient id="paint0_linear_1_460" x1="152.071" y1="16.6428" x2="121.035" y2="67.4283" gradientUnits="userSpaceOnUse">
<stop stop-color="#2196F3"/>
<stop offset="1" stop-opacity="0"/>
</linearGradient>
<linearGradient id="paint1_linear_1_460" x1="310.071" y1="174.642" x2="279.035" y2="225.428" gradientUnits="userSpaceOnUse">
<stop stop-color="#2196F3"/>
<stop offset="1" stop-opacity="0"/>
</linearGradient>
</defs>
</svg>
